HIERARCHY
ROOT Hips
{
	OFFSET	0.00	0.00	0.00
	CHANNELS 6 Xposition Yposition Zposition Zrotation Xrotation Yrotation
	JOINT LeftUpLeg
	{
		OFFSET	 0.126116	-0.014019	-0.065224
		CHANNELS 3 Zrotation Xrotation Yrotation
		JOINT LeftLeg
		{
			OFFSET	 0.000000	 0.000000	 0.569914
			CHANNELS 3 Zrotation Xrotation Yrotation
			JOINT LeftFoot
			{
				OFFSET	 0.000000	 0.000000	 0.544423
				CHANNELS 3 Zrotation Xrotation Yrotation
				JOINT LeftToeBase
				{
					OFFSET	 0.000000	 0.000000	 0.207117
					CHANNELS 3 Zrotation Xrotation Yrotation
					End Site
					{
						OFFSET	 0.000000	 0.000000	 0.207117
					}
				}
			}
		}
	}
	JOINT RightUpLeg
	{
		OFFSET	-0.124023	-0.008373	-0.065224
		CHANNELS 3 Zrotation Xrotation Yrotation
		JOINT RightLeg
		{
			OFFSET	 0.000000	 0.000000	 0.570047
			CHANNELS 3 Zrotation Xrotation Yrotation
			JOINT RightFoot
			{
				OFFSET	 0.000000	 0.000000	 0.544354
				CHANNELS 3 Zrotation Xrotation Yrotation
				JOINT RightToeBase
				{
					OFFSET	 0.000000	 0.000000	 0.207540
					CHANNELS 3 Zrotation Xrotation Yrotation
					End Site
					{
						OFFSET	 0.000000	 0.000000	 0.207540
					}
				}
			}
		}
	}
	JOINT Spine
	{
		OFFSET	 0.000184	-0.007763	 0.117403
		CHANNELS 3 Zrotation Xrotation Yrotation
		JOINT Spine1
		{
			OFFSET	 0.000000	 0.000000	 0.137269
			CHANNELS 3 Zrotation Xrotation Yrotation
			JOINT Spine2
			{
				OFFSET	 0.000000	 0.000000	 0.156879
				CHANNELS 3 Zrotation Xrotation Yrotation
				JOINT LeftShoulder
				{
					OFFSET	 0.080501	-0.002496	 0.160144
					CHANNELS 3 Zrotation Xrotation Yrotation
					JOINT LeftArm
					{
						OFFSET	 0.000000	 0.000000	 0.164363
						CHANNELS 3 Zrotation Xrotation Yrotation
						JOINT LeftForeArm
						{
							OFFSET	 0.000000	 0.000000	 0.364576
							CHANNELS 3 Zrotation Xrotation Yrotation
							JOINT LeftHand
							{
								OFFSET	 0.000000	 0.000000	 0.360812
								CHANNELS 3 Zrotation Xrotation Yrotation
								JOINT LeftHandIndex1
								{
									OFFSET	 0.000000	 0.000000	 0.086006
									CHANNELS 3 Zrotation Xrotation Yrotation
									JOINT LeftHandIndex2
									{
										OFFSET	 0.000000	 0.000000	 0.047237
										CHANNELS 3 Zrotation Xrotation Yrotation
										JOINT LeftHandIndex3
										{
											OFFSET	-0.004284	-0.000551	 0.038165
											CHANNELS 3 Zrotation Xrotation Yrotation
											End Site
											{
												OFFSET	-0.004284	-0.000551	 0.038165
											}
										}
									}
								}
							}
						}
					}
				}
				JOINT Neck
				{
					OFFSET	 0.000000	 0.000000	 0.176489
					CHANNELS 3 Zrotation Xrotation Yrotation
					JOINT Head
					{
						OFFSET	 0.000000	-0.001747	 0.077940
						CHANNELS 3 Zrotation Xrotation Yrotation
						End Site
						{
							OFFSET	 0.000000	-0.001747	 0.077940
						}
					}
				}
				JOINT RightShoulder
				{
					OFFSET	-0.080363	 0.000306	 0.159706
					CHANNELS 3 Zrotation Xrotation Yrotation
					JOINT RightArm
					{
						OFFSET	 0.000000	 0.000000	 0.164196
						CHANNELS 3 Zrotation Xrotation Yrotation
						JOINT RightForeArm
						{
							OFFSET	 0.000000	 0.000000	 0.365611
							CHANNELS 3 Zrotation Xrotation Yrotation
							JOINT RightHand
							{
								OFFSET	 0.000000	 0.000000	 0.360648
								CHANNELS 3 Zrotation Xrotation Yrotation
								JOINT RightHandIndex1
								{
									OFFSET	 0.000000	 0.000000	 0.069977
									CHANNELS 3 Zrotation Xrotation Yrotation
									JOINT RightHandIndex2
									{
										OFFSET	 0.000000	 0.000000	 0.052305
										CHANNELS 3 Zrotation Xrotation Yrotation
										JOINT RightHandIndex3
										{
											OFFSET	 0.009002	-0.000782	 0.042196
											CHANNELS 3 Zrotation Xrotation Yrotation
											End Site
											{
												OFFSET	 0.009002	-0.000782	 0.042196
											}
										}
									}
								}
							}
						}
					}
				}
			}
		}
	}
}
MOTION
Frames:    8
Frame Time: 0.03333334
-0.671640	-0.146555	 1.251806	-160.579100	 9.139427	 8.524934	 1.072755	-15.253520	 166.475900	-8.822942	-32.731540	-3.727731	-82.291770	 80.702550	 78.445790	-2.385833	 28.452760	 0.000004	 8.446407	-56.356420	 177.731300	-35.112870	-63.784920	-21.970520	 11.429140	 24.611290	-28.990960	 2.384659	 28.388700	-0.000001	 18.916540	-20.274740	-14.238840	 44.970460	 26.016750	 5.346824	-1.258974	-2.479138	-9.485461	-91.776150	 78.527420	 180.000000	 18.626330	 51.253960	-50.708290	-6.809498	-0.071310	-0.493449	 6.617414	-4.091995	-3.799217	-4.131196	 21.524690	 0.986298	-5.167839	 0.733520	 3.519257	-1.378229	 35.397820	-2.634230	-13.586750	 16.942610	-8.006428	-24.234690	 3.474445	 5.874741	 89.782100	 78.203900	 180.000000	 3.351203	 60.676440	 0.824489	-4.334319	-0.141895	 0.459333	 90.183860	-8.721677	-1.671551	 5.715225	 19.176060	-3.692089	 5.027514	 0.245388	-9.378011	-2.350882	 35.473990	 5.254307
-0.650547	-0.130072	 1.249541	-160.775500	 9.498028	 9.043489	 1.276098	-14.771210	 164.840000	-9.172290	-32.080380	-3.849325	-88.303380	 80.069720	 84.473610	-2.385833	 28.452760	 0.000004	 16.915000	-52.601820	-176.470300	-32.147000	-59.460890	-18.514500	 20.234880	 29.389610	-35.994000	 2.384659	 28.388700	-0.000001	 18.701250	-21.117590	-14.970500	 45.219230	 26.688640	 4.864471	-1.481551	-2.433836	-9.678605	-91.776150	 78.527380	 180.000000	 19.133360	 51.727250	-50.718830	-6.185056	-0.076955	-0.493398	 7.211384	-3.708851	-4.001012	-4.131196	 21.524690	 0.986298	-5.167839	 0.733520	 3.519257	-1.378229	 35.397820	-2.634230	-14.096490	 16.598420	-7.365900	-24.297810	 4.081704	 5.388818	 89.782120	 78.203870	 180.000000	 3.560509	 60.577900	 1.274319	-4.238465	-0.141258	 0.460018	 91.025020	-8.573534	-0.781066	 5.715225	 19.176060	-3.692089	 5.027514	 0.245388	-9.378011	-2.350882	 35.473990	 5.254307
-0.644067	-0.124977	 1.249266	-161.300600	 9.962360	 10.008750	 1.127541	-14.940520	 163.538900	-9.094312	-32.044460	-3.803642	-88.117540	 80.081150	 83.950900	-2.385833	 28.452760	 0.000004	 21.431710	-51.858870	-175.120600	-28.614900	-58.679150	-15.262870	 32.548900	 37.977080	-41.729630	 2.384659	 28.388700	-0.000001	 18.470360	-22.023320	-16.038150	 45.475820	 26.961570	 5.218826	-1.421968	-2.258582	-10.200610	-91.776160	 78.527420	 180.000000	 19.721210	 51.728150	-51.057420	-5.756971	-0.080599	-0.492717	 7.899244	-3.219497	-4.214150	-4.131196	 21.524690	 0.986298	-5.167839	 0.733520	 3.519257	-1.378229	 35.397820	-2.634230	-14.043370	 16.440570	-7.709874	-24.386810	 4.068249	 5.277324	 89.782100	 78.203900	 180.000000	 3.865595	 60.385350	 1.180014	-4.559513	-0.143853	 0.459400	 90.503910	-9.219139	-0.160641	 5.715225	 19.176060	-3.692089	 5.027514	 0.245388	-9.378011	-2.350882	 35.473990	 5.254307
-0.644513	-0.124102	 1.249998	-161.758000	 9.587954	 10.059440	 2.577333	-14.648270	 163.554600	-8.786477	-31.768260	-3.610551	-103.269400	 81.575500	 98.300880	-2.385833	 28.452760	 0.000004	 21.420350	-51.561940	-175.418000	-23.615970	-59.270940	-10.977050	 45.358610	 46.390770	-48.373090	 2.384659	 28.388700	-0.000001	 17.918480	-23.360560	-17.391460	 46.298020	 30.103020	 4.026913	-1.580890	-3.627578	-9.768281	-91.776220	 78.527360	-180.000000	 19.855400	 51.693920	-51.185750	-5.126368	-0.085799	-0.490335	 8.508698	-2.836775	-4.441768	-4.131196	 21.524690	 0.986298	-5.167839	 0.733520	 3.519257	-1.378229	 35.397820	-2.634230	-14.007830	 16.258650	-7.775346	-24.423120	 3.911079	 4.968108	 89.782100	 78.203900	 180.000000	 4.365964	 60.387470	 0.767853	-5.610517	-0.152184	 0.456603	 90.212360	-7.381713	 2.604103	 5.715225	 19.176060	-3.692089	 5.027514	 0.245388	-9.378011	-2.350882	 35.473990	 5.254307
-0.644471	-0.124181	 1.250336	-162.992600	 9.837893	 10.340800	 4.750035	-15.312440	 163.462600	-8.007312	-31.771280	-3.196839	-117.905500	 81.564830	 112.022600	-2.385833	 28.452760	 0.000004	 18.882270	-52.448270	-176.927000	-20.024890	-59.358900	-7.867785	 50.017690	 50.770140	-50.093200	 2.384659	 28.388700	-0.000001	 18.938830	-23.335230	-17.752800	 46.132150	 29.940590	 5.337983	-1.490886	-3.316462	-10.227290	-91.776160	 78.527380	 180.000000	 19.676020	 51.578950	-51.133700	-4.370452	-0.092671	-0.491544	 9.013091	-2.546143	-4.662449	-4.131196	 21.524690	 0.986298	-5.167839	 0.733520	 3.519257	-1.378229	 35.397820	-2.634230	-14.011400	 16.474770	-7.702018	-24.356010	 3.667470	 4.698841	 89.782080	 78.203850	-180.000000	 4.766870	 60.592680	 0.522872	-6.976991	-0.163706	 0.454713	 88.644030	-7.660302	 4.690075	 5.715225	 19.176060	-3.692089	 5.027514	 0.245388	-9.378011	-2.350882	 35.473990	 5.254307
-0.644995	-0.124070	 1.250619	-164.165800	 10.575770	 9.460238	 7.177966	-16.090560	 164.813800	-5.858373	-31.355840	-2.034953	-160.846600	 79.960150	 152.464000	-2.385833	 28.452760	 0.000004	 21.710480	-53.097960	-174.472800	-18.247930	-59.532410	-6.341915	 59.174980	 54.227220	-56.638940	 2.384659	 28.388700	-0.000001	 20.483920	-23.708030	-16.270720	 45.922430	 29.816800	 6.379652	-1.282275	-2.975903	-11.253690	-91.776130	 78.527400	 180.000000	 19.613540	 51.468060	-51.413440	-3.493442	-0.100095	-0.489550	 9.649238	-2.124057	-4.966227	-4.131196	 21.524690	 0.986298	-5.167839	 0.733520	 3.519257	-1.378229	 35.397820	-2.634230	-13.771590	 17.115150	-7.909359	-24.198750	 3.600633	 5.466595	 89.782130	 78.203920	 180.000000	 4.307738	 60.606750	 1.322212	-8.655227	-0.176386	 0.448016	 86.004130	-8.308400	 7.448886	 5.715225	 19.176060	-3.692089	 5.027514	 0.245388	-9.378011	-2.350882	 35.473990	 5.254307
-0.646108	-0.123292	 1.250951	-163.663900	 10.574450	 7.799389	 7.907528	-15.509550	 166.659700	-4.914686	-30.509700	-1.505041	 176.217800	 76.913060	 174.507900	-2.385833	 28.452760	 0.000004	 26.631070	-51.949520	-170.353900	-18.342260	-59.968970	-6.451997	 68.350670	 54.318990	-64.575040	 2.384659	 28.388700	-0.000001	 20.412070	-24.560550	-14.581770	 46.328000	 31.589270	 4.579378	-1.305155	-3.952673	-11.049050	-91.776180	 78.527420	-180.000000	 19.604710	 51.560260	-51.574690	-3.230944	-0.101556	-0.485371	 9.904329	-1.932482	-5.096297	-4.131196	 21.524690	 0.986298	-5.167839	 0.733520	 3.519257	-1.378229	 35.397820	-2.634230	-13.495060	 17.165230	-8.137361	-24.158570	 3.923310	 6.506123	 89.782130	 78.203900	 180.000000	 3.770202	 60.451420	 2.045613	-8.969130	-0.178645	 0.446767	 85.540150	-7.848630	 9.734482	 5.715225	 19.176060	-3.692089	 5.027514	 0.245388	-9.378011	-2.350882	 35.473990	 5.254307
-0.646382	-0.123541	 1.250588	-163.693000	 9.945616	 6.918823	 7.172089	-14.271820	 167.580500	-3.681308	-30.096050	-0.835276	 173.660600	 76.272000	 176.045100	-2.385833	 28.452760	 0.000004	 28.404350	-50.851190	-169.036900	-17.886660	-60.180320	-6.068702	 69.932780	 55.880010	-64.847870	 2.384659	 28.388700	-0.000001	 21.557470	-22.507420	-12.736100	 45.370850	 29.262560	 4.849510	-0.881304	-3.022170	-10.689310	-91.776180	 78.527420	-180.000000	 19.605010	 51.165680	-51.821610	-2.942357	-0.103966	-0.485264	 10.205800	-1.681890	-5.265284	-4.131196	 21.524690	 0.986298	-5.167839	 0.733520	 3.519257	-1.378229	 35.397820	-2.634230	-13.072530	 17.089070	-8.763762	-24.190440	 4.346276	 7.968241	 89.782140	 78.203890	 180.000000	 2.038930	 60.549470	 3.816343	-8.763294	-0.176690	 0.446392	 84.637210	-12.050170	 12.039920	 5.715225	 19.176060	-3.692089	 5.027514	 0.245388	-9.378011	-2.350882	 35.473990	 5.254307
